Coordinates
version=1
nRows=7
nColumns=40
inDegrees=yes

Units are S.I. units (second, meters, Newtons, ...)
Angles are in degrees.

endheader
time	pelvis_tilt	pelvis_list	pelvis_rotation	pelvis_tx	pelvis_ty	pelvis_tz	hip_flexion_r	hip_adduction_r	hip_rotation_r	knee_angle_r	knee_angle_r_beta	ankle_angle_r	subtalar_angle_r	mtp_angle_r	hip_flexion_l	hip_adduction_l	hip_rotation_l	knee_angle_l	knee_angle_l_beta	ankle_angle_l	subtalar_angle_l	mtp_angle_l	lumbar_extension	lumbar_bending	lumbar_rotation	arm_flex_r	arm_add_r	arm_rot_r	elbow_flex_r	pro_sup_r	wrist_flex_r	wrist_dev_r	arm_flex_l	arm_add_l	arm_rot_l	elbow_flex_l	pro_sup_l	wrist_flex_l	wrist_dev_l
     32.22000000	     -6.08791733	     -4.02828126	      0.79131104	      1.07506497	      0.91335681	      0.48911871	     -4.55553762	     -2.00431378	    -16.46086633	     19.39177043	     19.39177043	     17.41353700	      9.13497001	     -8.54489359	     30.87039951	     -6.51115422	     -1.31754238	     30.18095400	     30.18095400	      8.71854962	    -16.39624213	      9.10028298	     -6.99775076	      6.86014411	      4.65647279	     40.52697625	    -16.75773863	      0.46732329	    119.19584419	     43.66459201	      0.00000000	      0.00000000	    -10.25076353	     -6.54361454	      0.82898866	     25.23843562	     45.56415087	      0.00000000	      0.00000000
     32.23142857	     -6.07292095	     -3.87914038	      0.73114220	      1.07548811	      0.91475189	      0.48530437	     -4.02569713	     -2.88000848	    -16.30303762	     21.39908030	     21.39908030	     15.37419622	      8.39431999	    -12.58284119	     30.09826789	     -6.10579816	     -1.38967780	     30.16098644	     30.16098644	      9.54878978	    -16.51244715	      9.64808772	     -6.97810944	      6.87712633	      4.84139277	     38.69171976	    -17.36173643	     -0.13315983	    119.92188013	     43.71447762	      0.00000000	      0.00000000	     -9.64718261	     -6.55077279	      1.11162574	     27.31641989	     45.51511857	      0.00000000	      0.00000000
     32.24285714	     -6.02037700	     -3.77563500	      0.60656365	      1.07583198	      0.91620711	      0.48180669	     -3.27187137	     -3.71654729	    -15.85949302	     23.78983382	     23.78983382	     13.05606884	      7.05843279	    -16.75533900	     29.16850690	     -5.84107726	     -1.66813406	     29.93229004	     29.93229004	     10.23137374	    -16.34439898	      9.69812929	     -6.97977941	      6.92037340	      4.56641597	     37.12168807	    -17.44553628	     -0.28983805	    119.59732443	     43.81803146	      0.00000000	      0.00000000	     -9.08400141	     -6.69854796	      1.86761524	     28.91998668	     45.41191020	      0.00000000	      0.00000000
     32.25428571	     -5.93199654	     -3.67793191	      0.45303678	      1.07601347	      0.91766620	      0.47838632	     -2.16131781	     -4.66966125	    -15.43696835	     26.98568436	     26.98568436	     11.71776995	      6.16599346	    -17.44517588	     28.21415249	     -5.59900170	     -1.99484994	     29.70832978	     29.70832978	     10.75127791	    -16.20740835	      9.50447985	     -7.05005720	      6.95802637	      4.36497087	     35.41163134	    -17.60021920	     -0.23561612	    118.89276646	     43.83932414	      0.00000000	      0.00000000	     -8.08445648	     -6.60696994	      1.85226869	     29.82110205	     45.43028450	      0.00000000	      0.00000000
     32.26571429	     -5.96298138	     -3.71803274	      0.28977246	      1.07591833	      0.91881845	      0.47529549	     -0.70647295	     -5.31834337	    -14.52852971	     30.27462064	     30.27462064	      9.28162296	      3.81519686	    -20.23487005	     27.40300527	     -5.51232423	     -2.24308656	     29.44076015	     29.44076015	     11.16720696	    -16.04843769	      9.13889673	     -7.03846787	      7.09550755	      4.35667693	     33.38410695	    -17.75611931	     -1.21308657	    118.22687431	     43.94320491	      0.00000000	      0.00000000	     -7.73881545	     -6.80431405	      1.91535005	     32.95481515	     45.43686428	      0.00000000	      0.00000000
     32.27714286	     -5.83661952	     -3.62590976	      0.08379878	      1.07573861	      0.92006102	      0.47229752	      0.86834223	     -6.24525088	    -13.86894451	     34.11203046	     34.11203046	      7.53091003	      2.44585923	    -20.53179418	     26.40359414	     -5.33643044	     -2.68194597	     29.16670020	     29.16670020	     11.64804095	    -15.78243100	      8.91402647	     -7.20752656	      7.12404286	      4.16719100	     31.50905678	    -17.77555881	     -1.12145936	    117.08521726	     43.97405705	      0.00000000	      0.00000000	     -6.58315341	     -6.84858386	      1.87760038	     33.89921924	     45.46151736	      0.00000000	      0.00000000
     32.28857143	     -5.83688976	     -3.58701119	     -0.16934098	      1.07519266	      0.92098189	      0.46968597	      2.85809588	     -6.97989111	    -12.89346720	     38.18496620	     38.18496620	      5.57402950	      0.37842640	    -20.49400052	     25.57257715	     -5.24841155	     -3.11194566	     28.89667276	     28.89667276	     12.11344704	    -15.47146170	      8.62960835	     -7.25490545	      7.15108615	      4.06063418	     29.51311825	    -17.84945284	     -1.35604420	    115.56082506	     44.02736221	      0.00000000	      0.00000000	     -5.45885878	     -6.97077245	      1.78314035	     35.24161850	     45.49351233	      0.00000000	      0.00000000
